<?xml version="1.0" encoding="utf-8"?>
<!-- Generator: Adobe Illustrator 26.3.1, SVG Export Plug-In . SVG Version: 6.00 Build 0)  -->
<svg version="1.1" id="Layer_1" xmlns="http://www.w3.org/2000/svg" xmlns:xlink="http://www.w3.org/1999/xlink" x="0px" y="0px"
	 viewBox="0 0 400 250" style="enable-background:new 0 0 400 250;" xml:space="preserve">
<style type="text/css">
	.st0{fill:#020203;}
	.st1{font-family:'Forum';}
	.st2{font-size:40.8069px;}
	.st3{fill:#FFD405;}
</style>
<g>
	<text transform="matrix(0.9912 0 0 1 6.3495 237.8449)" class="st0 st1 st2">Дизайн Друк Доставка</text>
	<g>
		<polygon class="st0" points="11.17,167.26 16.29,166.24 38.28,85.93 35.73,82.35 		"/>
	</g>
	<polygon class="st0" points="103.76,152.94 42.89,70.58 40.33,79.79 36.75,76.21 41.35,61.37 108.19,152.94 	"/>
	<polygon class="st0" points="99.67,153.96 115.01,151.91 118.08,168.28 113.99,169.3 110.92,156.52 101.2,158.05 99.67,158.28 	"/>
	<path class="st0" d="M122.17,134.01"/>
	<polygon class="st0" points="95.57,156.52 95.57,159.25 8.1,174.42 9.64,187.21 6.23,187.21 3.5,172.89 	"/>
	<path class="st3" d="M120.64,120.71"/>
	<polygon class="st3" points="49.54,91.6 45.96,87.97 48.43,78.07 51.58,82.35 	"/>
	<polygon class="st3" points="52.55,76.71 58.74,57.79 119.1,139.12 124.67,139.12 57.72,47.56 49.65,72.74 	"/>
	<path class="st3" d="M67.95,76.72"/>
	<path class="st3" d="M25.81,171.86"/>
	<polyline class="st3" points="44.06,93.34 46.98,97.8 30.21,157.03 25.09,157.03 	"/>
	<polygon class="st3" points="21.54,172.09 21.54,175.04 25.81,174.27 25.81,171.35 	"/>
	<polygon class="st3" points="23.96,165.72 23.96,160.41 85.34,149.87 82.79,145.77 18.81,157.03 19.36,166.24 	"/>
	<polyline class="st3" points="96.7,143.39 87.16,145.19 89.44,149.36 100.04,147.91 	"/>
	<path class="st3" d="M110.92,132.99"/>
	<polyline class="st3" points="103.76,146.87 100.79,142.8 128.31,137.59 128.31,143.39 	"/>
	<path class="st3" d="M130.36,125.82"/>
	<rect x="128.31" y="150.67" class="st3" width="4.93" height="4.41"/>
	<polygon class="st3" points="129.17,146.87 132.61,146.87 131.38,142.71 130.48,142.71 130.36,145.77 	"/>
	<g>
		<polygon class="st0" points="141.1,143.22 146.22,142.19 168.21,61.88 165.65,58.3 		"/>
	</g>
	<polygon class="st0" points="233.69,128.89 172.82,46.54 170.26,55.75 166.68,52.16 171.28,37.33 238.12,128.89 	"/>
	<polygon class="st0" points="229.59,129.92 244.94,127.87 248.01,144.24 243.92,145.26 240.85,132.47 231.13,134.01 229.59,134.24 
			"/>
	<path class="st0" d="M252.1,109.97"/>
	<polygon class="st0" points="225.5,132.47 225.5,135.2 138.03,150.38 139.57,163.17 136.16,163.17 133.43,148.84 	"/>
	<path class="st3" d="M250.57,96.67"/>
	<polygon class="st3" points="179.47,67.55 175.88,63.93 178.35,54.03 181.51,58.3 	"/>
	<polygon class="st3" points="182.48,52.67 188.67,33.75 249.03,115.08 254.59,115.08 187.65,23.52 179.58,48.7 	"/>
	<path class="st3" d="M197.88,52.68"/>
	<path class="st3" d="M155.74,147.82"/>
	<polyline class="st3" points="173.98,69.3 176.91,73.76 160.13,132.99 155.01,132.99 	"/>
	<polygon class="st3" points="151.46,148.05 151.46,151 155.74,150.23 155.74,147.31 	"/>
	<polygon class="st3" points="153.89,141.68 153.89,136.37 215.27,125.82 212.71,121.73 148.74,132.99 149.29,142.19 	"/>
	<polyline class="st3" points="226.63,119.35 217.09,121.15 219.36,125.31 229.97,123.87 	"/>
	<path class="st3" d="M240.85,108.94"/>
	<polyline class="st3" points="233.69,122.82 230.72,118.75 258.24,113.55 258.24,119.35 	"/>
	<path class="st3" d="M260.29,101.78"/>
	<rect x="258.24" y="126.63" class="st3" width="4.93" height="4.41"/>
	<polygon class="st3" points="259.1,122.82 262.54,122.82 261.31,118.66 260.41,118.66 260.29,121.73 	"/>
	<g>
		<polygon class="st0" points="271.03,121.73 276.14,120.71 298.14,40.4 295.58,36.82 		"/>
	</g>
	<polygon class="st0" points="363.61,107.41 302.74,25.05 300.19,34.26 296.6,30.68 301.21,15.85 368.05,107.41 	"/>
	<polygon class="st0" points="359.52,108.43 374.87,106.39 377.94,122.76 373.85,123.78 370.78,110.99 361.06,112.53 359.52,112.75 
			"/>
	<path class="st0" d="M382.03,88.48"/>
	<polygon class="st0" points="355.43,110.99 355.43,113.72 267.96,128.89 269.49,141.68 266.09,141.68 263.36,127.36 	"/>
	<path class="st3" d="M380.5,75.18"/>
	<polygon class="st3" points="309.39,46.07 305.81,42.45 308.28,32.55 311.44,36.82 	"/>
	<polygon class="st3" points="312.41,31.19 318.6,12.27 378.96,93.6 384.52,93.6 317.58,2.04 309.51,27.21 	"/>
	<path class="st3" d="M327.81,31.19"/>
	<path class="st3" d="M285.66,126.34"/>
	<polyline class="st3" points="303.91,47.82 306.84,52.27 290.06,111.5 284.94,111.5 	"/>
	<polygon class="st3" points="281.39,126.56 281.39,129.52 285.66,128.74 285.66,125.82 	"/>
	<polygon class="st3" points="283.82,120.2 283.82,114.88 345.2,104.34 342.64,100.25 278.67,111.5 279.21,120.71 	"/>
	<polyline class="st3" points="356.56,97.87 347.01,99.67 349.29,103.83 359.9,102.38 	"/>
	<path class="st3" d="M370.78,87.46"/>
	<polyline class="st3" points="363.61,101.34 360.64,97.27 388.17,92.06 388.17,97.87 	"/>
	<path class="st3" d="M390.21,80.3"/>
	<rect x="388.17" y="105.14" class="st3" width="4.93" height="4.41"/>
	<polygon class="st3" points="389.03,101.34 392.47,101.34 391.24,97.18 390.34,97.18 390.21,100.25 	"/>
</g>
</svg>
